<svg id="Calque_1" data-name="Calque 1" xmlns="http://www.w3.org/2000/svg" viewBox="0 0 266 90"><path d="M132.77692,41.16834a20.16431,20.16431,0,0,0,20.34505-19.997,20.34807,20.34807,0,0,0-40.69009,0A20.17548,20.17548,0,0,0,132.77692,41.16834Zm0-30.474a10.47851,10.47851,0,1,1-10.65113,10.47708A10.57048,10.57048,0,0,1,132.77692,10.69429Z" style="fill:#00eaff"/><path d="M67.61709,41.16834h9.67652V21.60647a10.65163,10.65163,0,1,1,21.30225,0V41.16834h9.67651V21.60647a20.34593,20.34593,0,1,0-40.69008,0V41.16834Z" style="fill:#00eaff"/><path d="M45.65349,21.86753a10.50419,10.50419,0,0,0-.71355-3.794L38.37871,1.08739H27.95383L39.56216,31.14375A9.88941,9.88941,0,0,0,45.65349,21.86753Z" style="fill:#00eaff"/><path d="M177.34805,41.16834,192.82,1.08739H182.39516l-15.472,40.081Z" style="fill:#00eaff"/><path d="M169.15086,21.86753a10.14688,10.14688,0,0,0-.71356-3.794L161.87608,1.08739H151.4512l11.60833,30.05636A9.88941,9.88941,0,0,0,169.15086,21.86753Z" style="fill:#00eaff"/><path d="M58.89779,1.08739,33.36641,67.23923H43.79129L69.32266,1.08739Z" style="fill:#00eaff"/><path d="M68.96,54.49023h2.33887V67.083H68.96Z" style="fill:#fff"/><path d="M85.26074,54.49023V67.083h-1.9248L76.3916,58.55566V67.083H74.0708V54.49023h1.92529l6.94385,8.52735V54.49023Z" style="fill:#fff"/><path d="M90.35791,56.45117v3.832h6.08057v1.97852H90.35791V67.083H88.019V54.49023h9.19287v1.96094Z" style="fill:#fff"/><path d="M97.81006,60.78613a6.78944,6.78944,0,1,1,6.78223,6.47657A6.44864,6.44864,0,0,1,97.81006,60.78613Zm11.208,0a4.42554,4.42554,0,1,0-4.42578,4.42578A4.29127,4.29127,0,0,0,109.01807,60.78613Z" style="fill:#fff"/><path d="M121.47314,67.083l-2.57275-3.6875a4.48312,4.48312,0,0,1-.48584.01758h-2.84228V67.083H113.2334V54.49023h5.18115c3.31055,0,5.36133,1.69043,5.36133,4.4795a4.02683,4.02683,0,0,1-2.68067,3.97558l2.89649,4.1377Zm-3.1665-10.61426h-2.73437v5.01953h2.73437c2.05078,0,3.11231-.93555,3.11231-2.51855S120.35742,56.46875,118.30664,56.46875Z" style="fill:#fff"/><path d="M137.32764,67.083l-.01807-8.34766-4.13769,6.9082h-1.04346l-4.1377-6.7998V67.083h-2.23095V54.49023h1.92529l5.001,8.34668,4.91113-8.34668h1.92529l.01807,12.59278Z" style="fill:#fff"/><path d="M150.48486,64.169h-6.29638L142.94727,67.083h-2.41065l5.667-12.59278h2.30274L154.19092,67.083h-2.44678Zm-.77343-1.835-2.37452-5.50488L144.98,62.334Z" style="fill:#fff"/><path d="M157.09229,56.46875h-4.17383V54.49023H163.605v1.97852h-4.17383V67.083h-2.33886Z" style="fill:#fff"/><path d="M164.74219,54.49023h2.33886V67.083h-2.33886Z" style="fill:#fff"/><path d="M183.14844,68.34277a4.19326,4.19326,0,0,1-3.29248,1.49317c-1.709,0-2.98633-.666-4.83936-2.60938a6.38026,6.38026,0,0,1-6.0625-6.44043,6.78944,6.78944,0,0,1,13.56445,0,6.3054,6.3054,0,0,1-4.71337,6.207,2.75558,2.75558,0,0,0,2.105,1.06153,2.85069,2.85069,0,0,0,2.15869-1.00781Zm-7.41211-3.13086a4.42529,4.42529,0,1,0-4.42529-4.42578A4.2915,4.2915,0,0,0,175.73633,65.21191Z" style="fill:#fff"/><path d="M184.26953,61.5957V54.49023h2.33887v7.01563c0,2.59082,1.16943,3.70605,3.20215,3.70605s3.18408-1.11523,3.18408-3.70605V54.49023h2.30273V61.5957c0,3.66992-2.06884,5.667-5.50488,5.667C186.33838,67.2627,184.26953,65.26562,184.26953,61.5957Z" style="fill:#fff"/><path d="M207.39209,65.12207V67.083h-9.44482V54.49023h9.19287v1.96094h-6.854v3.27344h6.08057v1.92578h-6.08057v3.47168Z" style="fill:#fff"/></svg>