<svg xmlns="http://www.w3.org/2000/svg" width="177.734" height="66.89" viewBox="0 0 177.734 66.89">
  <g id="Cybersécurité_Couleur_Blanc" data-name="Cybersécurité Couleur Blanc" transform="translate(0)">
    <path id="Tracé_6747" data-name="Tracé 6747" d="M68.584,39.463a19.866,19.866,0,0,0,20.044-19.7,20.047,20.047,0,0,0-40.089,0,19.877,19.877,0,0,0,20.044,19.7m0-30.024A10.324,10.324,0,1,1,58.091,19.762,10.414,10.414,0,0,1,68.584,9.439" transform="translate(34.69 0.043)" fill="#5affb6"/>
    <path id="Tracé_6748" data-name="Tracé 6748" d="M22.8,39.506h9.534V20.233a10.494,10.494,0,1,1,20.988,0V39.506h9.534V20.233a20.045,20.045,0,1,0-40.089,0V39.506Z" transform="translate(16.273)" fill="#5affb6"/>
    <path id="Tracé_6749" data-name="Tracé 6749" d="M17.438,20.483a10.349,10.349,0,0,0-.7-3.738L10.271.01H0L11.437,29.623a9.743,9.743,0,0,0,6-9.139" transform="translate(0 0.007)" fill="#5affb6"/>
    <path id="Tracé_6750" data-name="Tracé 6750" d="M90.121,39.5,105.364.01H95.093L79.85,39.5Z" transform="translate(57.066 0.007)" fill="#5affb6"/>
    <path id="Tracé_6751" data-name="Tracé 6751" d="M88.4,20.483a10,10,0,0,0-.7-3.738L81.231.01H70.96L82.4,29.623a9.743,9.743,0,0,0,6-9.139" transform="translate(50.713 0.007)" fill="#5affb6"/>
    <path id="Tracé_6752" data-name="Tracé 6752" d="M28.264.01,3.11,65.185H13.381L38.535.01Z" transform="translate(2.222 0.007)" fill="#5affb6"/>
    <text id="CYBERSÉCURITÉ" transform="translate(38.734 62.89)" fill="#fff" font-size="16" font-family="Montserrat-SemiBold, Montserrat, sans-serif" font-weight="600"><tspan x="0" y="0">CYBERSÉCURITÉ</tspan></text>
  </g>
</svg>
